<mxfile host="app.diagrams.net" agent="Mozilla/5.0 (X11; Ubuntu; Linux x86_64; rv:132.0) Gecko/20100101 Firefox/132.0" version="24.8.3">
  <diagram name="Page-1" id="FufoXanhPRkrwD_W-E72">
    <mxGraphModel dx="2214" dy="758" grid="1" gridSize="10" guides="1" tooltips="1" connect="1" arrows="1" fold="1" page="1" pageScale="1" pageWidth="850" pageHeight="1100" math="0" shadow="0">
      <root>
        <mxCell id="0" />
        <mxCell id="1" parent="0" />
        <mxCell id="jS9vBvpKBLp8E3dJ-pfQ-13" value="" style="edgeStyle=orthogonalEdgeStyle;rounded=0;orthogonalLoop=1;jettySize=auto;html=1;" edge="1" parent="1" source="jS9vBvpKBLp8E3dJ-pfQ-1" target="jS9vBvpKBLp8E3dJ-pfQ-9">
          <mxGeometry relative="1" as="geometry" />
        </mxCell>
        <mxCell id="jS9vBvpKBLp8E3dJ-pfQ-1" value="m[0]" style="rounded=0;whiteSpace=wrap;html=1;fillColor=#ffe6cc;strokeColor=#d79b00;" vertex="1" parent="1">
          <mxGeometry x="80" y="380" width="180" height="60" as="geometry" />
        </mxCell>
        <mxCell id="jS9vBvpKBLp8E3dJ-pfQ-14" value="" style="edgeStyle=orthogonalEdgeStyle;rounded=0;orthogonalLoop=1;jettySize=auto;html=1;exitX=0.5;exitY=1;exitDx=0;exitDy=0;" edge="1" parent="1" source="jS9vBvpKBLp8E3dJ-pfQ-2" target="jS9vBvpKBLp8E3dJ-pfQ-10">
          <mxGeometry relative="1" as="geometry">
            <mxPoint x="320" y="440" as="sourcePoint" />
          </mxGeometry>
        </mxCell>
        <mxCell id="jS9vBvpKBLp8E3dJ-pfQ-2" value="m[1]" style="rounded=0;whiteSpace=wrap;html=1;fillColor=#ffe6cc;strokeColor=#d79b00;" vertex="1" parent="1">
          <mxGeometry x="260" y="380" width="200" height="60" as="geometry" />
        </mxCell>
        <mxCell id="jS9vBvpKBLp8E3dJ-pfQ-15" value="" style="edgeStyle=orthogonalEdgeStyle;rounded=0;orthogonalLoop=1;jettySize=auto;html=1;" edge="1" parent="1" source="jS9vBvpKBLp8E3dJ-pfQ-3" target="jS9vBvpKBLp8E3dJ-pfQ-11">
          <mxGeometry relative="1" as="geometry" />
        </mxCell>
        <mxCell id="jS9vBvpKBLp8E3dJ-pfQ-3" value="m[2]" style="rounded=0;whiteSpace=wrap;html=1;fillColor=#ffe6cc;strokeColor=#d79b00;" vertex="1" parent="1">
          <mxGeometry x="460" y="380" width="190" height="60" as="geometry" />
        </mxCell>
        <mxCell id="jS9vBvpKBLp8E3dJ-pfQ-34" value="" style="edgeStyle=orthogonalEdgeStyle;rounded=0;orthogonalLoop=1;jettySize=auto;html=1;" edge="1" parent="1" source="jS9vBvpKBLp8E3dJ-pfQ-4" target="jS9vBvpKBLp8E3dJ-pfQ-12">
          <mxGeometry relative="1" as="geometry" />
        </mxCell>
        <mxCell id="jS9vBvpKBLp8E3dJ-pfQ-4" value="m3]" style="rounded=0;whiteSpace=wrap;html=1;fillColor=#ffe6cc;strokeColor=#d79b00;" vertex="1" parent="1">
          <mxGeometry x="650" y="380" width="190" height="60" as="geometry" />
        </mxCell>
        <mxCell id="jS9vBvpKBLp8E3dJ-pfQ-23" style="edgeStyle=orthogonalEdgeStyle;rounded=0;orthogonalLoop=1;jettySize=auto;html=1;entryX=0;entryY=0.5;entryDx=0;entryDy=0;" edge="1" parent="1" source="jS9vBvpKBLp8E3dJ-pfQ-5" target="jS9vBvpKBLp8E3dJ-pfQ-18">
          <mxGeometry relative="1" as="geometry">
            <Array as="points">
              <mxPoint x="170" y="690" />
            </Array>
          </mxGeometry>
        </mxCell>
        <mxCell id="jS9vBvpKBLp8E3dJ-pfQ-5" value="F(k1, .)" style="rounded=0;whiteSpace=wrap;html=1;fillColor=#dae8fc;strokeColor=#6c8ebf;" vertex="1" parent="1">
          <mxGeometry x="130" y="540" width="80" height="60" as="geometry" />
        </mxCell>
        <mxCell id="jS9vBvpKBLp8E3dJ-pfQ-24" style="edgeStyle=orthogonalEdgeStyle;rounded=0;orthogonalLoop=1;jettySize=auto;html=1;exitX=0.5;exitY=1;exitDx=0;exitDy=0;entryX=0.5;entryY=0;entryDx=0;entryDy=0;" edge="1" parent="1" source="jS9vBvpKBLp8E3dJ-pfQ-6" target="jS9vBvpKBLp8E3dJ-pfQ-18">
          <mxGeometry relative="1" as="geometry">
            <Array as="points">
              <mxPoint x="360" y="630" />
              <mxPoint x="460" y="630" />
            </Array>
          </mxGeometry>
        </mxCell>
        <mxCell id="jS9vBvpKBLp8E3dJ-pfQ-6" value="F(k1, .)" style="rounded=0;whiteSpace=wrap;html=1;fillColor=#dae8fc;strokeColor=#6c8ebf;" vertex="1" parent="1">
          <mxGeometry x="320" y="540" width="80" height="60" as="geometry" />
        </mxCell>
        <mxCell id="jS9vBvpKBLp8E3dJ-pfQ-25" style="edgeStyle=orthogonalEdgeStyle;rounded=0;orthogonalLoop=1;jettySize=auto;html=1;entryX=0.5;entryY=0;entryDx=0;entryDy=0;" edge="1" parent="1" source="jS9vBvpKBLp8E3dJ-pfQ-7" target="jS9vBvpKBLp8E3dJ-pfQ-18">
          <mxGeometry relative="1" as="geometry">
            <Array as="points">
              <mxPoint x="560" y="630" />
              <mxPoint x="460" y="630" />
            </Array>
          </mxGeometry>
        </mxCell>
        <mxCell id="jS9vBvpKBLp8E3dJ-pfQ-7" value="F(k1, .)" style="rounded=0;whiteSpace=wrap;html=1;fillColor=#dae8fc;strokeColor=#6c8ebf;" vertex="1" parent="1">
          <mxGeometry x="515" y="540" width="80" height="60" as="geometry" />
        </mxCell>
        <mxCell id="jS9vBvpKBLp8E3dJ-pfQ-19" value="" style="edgeStyle=orthogonalEdgeStyle;rounded=0;orthogonalLoop=1;jettySize=auto;html=1;" edge="1" parent="1" source="jS9vBvpKBLp8E3dJ-pfQ-9" target="jS9vBvpKBLp8E3dJ-pfQ-5">
          <mxGeometry relative="1" as="geometry" />
        </mxCell>
        <mxCell id="jS9vBvpKBLp8E3dJ-pfQ-9" value="" style="shape=orEllipse;perimeter=ellipsePerimeter;whiteSpace=wrap;html=1;backgroundOutline=1;fillColor=#f8cecc;strokeColor=#b85450;" vertex="1" parent="1">
          <mxGeometry x="150" y="470" width="40" height="40" as="geometry" />
        </mxCell>
        <mxCell id="jS9vBvpKBLp8E3dJ-pfQ-20" value="" style="edgeStyle=orthogonalEdgeStyle;rounded=0;orthogonalLoop=1;jettySize=auto;html=1;" edge="1" parent="1" source="jS9vBvpKBLp8E3dJ-pfQ-10" target="jS9vBvpKBLp8E3dJ-pfQ-6">
          <mxGeometry relative="1" as="geometry" />
        </mxCell>
        <mxCell id="jS9vBvpKBLp8E3dJ-pfQ-10" value="" style="shape=orEllipse;perimeter=ellipsePerimeter;whiteSpace=wrap;html=1;backgroundOutline=1;fillColor=#f8cecc;strokeColor=#b85450;" vertex="1" parent="1">
          <mxGeometry x="340" y="470" width="40" height="40" as="geometry" />
        </mxCell>
        <mxCell id="jS9vBvpKBLp8E3dJ-pfQ-21" value="" style="edgeStyle=orthogonalEdgeStyle;rounded=0;orthogonalLoop=1;jettySize=auto;html=1;" edge="1" parent="1" source="jS9vBvpKBLp8E3dJ-pfQ-11" target="jS9vBvpKBLp8E3dJ-pfQ-7">
          <mxGeometry relative="1" as="geometry" />
        </mxCell>
        <mxCell id="jS9vBvpKBLp8E3dJ-pfQ-11" value="" style="shape=orEllipse;perimeter=ellipsePerimeter;whiteSpace=wrap;html=1;backgroundOutline=1;fillColor=#f8cecc;strokeColor=#b85450;" vertex="1" parent="1">
          <mxGeometry x="535" y="470" width="40" height="40" as="geometry" />
        </mxCell>
        <mxCell id="jS9vBvpKBLp8E3dJ-pfQ-12" value="" style="shape=orEllipse;perimeter=ellipsePerimeter;whiteSpace=wrap;html=1;backgroundOutline=1;fillColor=#f8cecc;strokeColor=#b85450;" vertex="1" parent="1">
          <mxGeometry x="725" y="470" width="40" height="40" as="geometry" />
        </mxCell>
        <mxCell id="jS9vBvpKBLp8E3dJ-pfQ-28" value="" style="edgeStyle=orthogonalEdgeStyle;rounded=0;orthogonalLoop=1;jettySize=auto;html=1;dashed=1;" edge="1" parent="1" source="jS9vBvpKBLp8E3dJ-pfQ-17" target="jS9vBvpKBLp8E3dJ-pfQ-27">
          <mxGeometry relative="1" as="geometry" />
        </mxCell>
        <mxCell id="jS9vBvpKBLp8E3dJ-pfQ-17" value="F(k1, .)" style="rounded=0;whiteSpace=wrap;html=1;fillColor=#dae8fc;strokeColor=#6c8ebf;" vertex="1" parent="1">
          <mxGeometry x="420" y="750" width="80" height="60" as="geometry" />
        </mxCell>
        <mxCell id="jS9vBvpKBLp8E3dJ-pfQ-26" value="" style="edgeStyle=orthogonalEdgeStyle;rounded=0;orthogonalLoop=1;jettySize=auto;html=1;" edge="1" parent="1" source="jS9vBvpKBLp8E3dJ-pfQ-18" target="jS9vBvpKBLp8E3dJ-pfQ-17">
          <mxGeometry relative="1" as="geometry" />
        </mxCell>
        <mxCell id="jS9vBvpKBLp8E3dJ-pfQ-18" value="" style="shape=orEllipse;perimeter=ellipsePerimeter;whiteSpace=wrap;html=1;backgroundOutline=1;fillColor=#f8cecc;strokeColor=#b85450;" vertex="1" parent="1">
          <mxGeometry x="440" y="670" width="40" height="40" as="geometry" />
        </mxCell>
        <mxCell id="jS9vBvpKBLp8E3dJ-pfQ-22" value="" style="endArrow=classic;html=1;rounded=0;entryX=1;entryY=0.5;entryDx=0;entryDy=0;exitX=0.5;exitY=1;exitDx=0;exitDy=0;" edge="1" parent="1" source="jS9vBvpKBLp8E3dJ-pfQ-12" target="jS9vBvpKBLp8E3dJ-pfQ-18">
          <mxGeometry width="50" height="50" relative="1" as="geometry">
            <mxPoint x="400" y="490" as="sourcePoint" />
            <mxPoint x="450" y="440" as="targetPoint" />
            <Array as="points">
              <mxPoint x="745" y="600" />
            </Array>
          </mxGeometry>
        </mxCell>
        <mxCell id="jS9vBvpKBLp8E3dJ-pfQ-27" value="TAG" style="rounded=0;whiteSpace=wrap;html=1;dashed=1;fillColor=#e1d5e7;strokeColor=#9673a6;" vertex="1" parent="1">
          <mxGeometry x="420" y="870" width="80" height="60" as="geometry" />
        </mxCell>
        <mxCell id="jS9vBvpKBLp8E3dJ-pfQ-33" value="" style="edgeStyle=orthogonalEdgeStyle;rounded=0;orthogonalLoop=1;jettySize=auto;html=1;" edge="1" parent="1" source="jS9vBvpKBLp8E3dJ-pfQ-29" target="jS9vBvpKBLp8E3dJ-pfQ-9">
          <mxGeometry relative="1" as="geometry" />
        </mxCell>
        <mxCell id="jS9vBvpKBLp8E3dJ-pfQ-29" value="P(k, 0)" style="text;html=1;align=center;verticalAlign=middle;whiteSpace=wrap;rounded=0;" vertex="1" parent="1">
          <mxGeometry x="50" y="475" width="60" height="30" as="geometry" />
        </mxCell>
        <mxCell id="jS9vBvpKBLp8E3dJ-pfQ-32" value="" style="edgeStyle=orthogonalEdgeStyle;rounded=0;orthogonalLoop=1;jettySize=auto;html=1;" edge="1" parent="1" source="jS9vBvpKBLp8E3dJ-pfQ-30" target="jS9vBvpKBLp8E3dJ-pfQ-10">
          <mxGeometry relative="1" as="geometry" />
        </mxCell>
        <mxCell id="jS9vBvpKBLp8E3dJ-pfQ-30" value="P(k, 1)" style="text;html=1;align=center;verticalAlign=middle;whiteSpace=wrap;rounded=0;" vertex="1" parent="1">
          <mxGeometry x="240" y="475" width="60" height="30" as="geometry" />
        </mxCell>
        <mxCell id="jS9vBvpKBLp8E3dJ-pfQ-36" value="" style="edgeStyle=orthogonalEdgeStyle;rounded=0;orthogonalLoop=1;jettySize=auto;html=1;" edge="1" parent="1" source="jS9vBvpKBLp8E3dJ-pfQ-35" target="jS9vBvpKBLp8E3dJ-pfQ-11">
          <mxGeometry relative="1" as="geometry" />
        </mxCell>
        <mxCell id="jS9vBvpKBLp8E3dJ-pfQ-35" value="P(k, 2)" style="text;html=1;align=center;verticalAlign=middle;whiteSpace=wrap;rounded=0;" vertex="1" parent="1">
          <mxGeometry x="440" y="475" width="60" height="30" as="geometry" />
        </mxCell>
        <mxCell id="jS9vBvpKBLp8E3dJ-pfQ-38" value="" style="edgeStyle=orthogonalEdgeStyle;rounded=0;orthogonalLoop=1;jettySize=auto;html=1;" edge="1" parent="1" source="jS9vBvpKBLp8E3dJ-pfQ-37" target="jS9vBvpKBLp8E3dJ-pfQ-12">
          <mxGeometry relative="1" as="geometry" />
        </mxCell>
        <mxCell id="jS9vBvpKBLp8E3dJ-pfQ-37" value="P(k, 3)" style="text;html=1;align=center;verticalAlign=middle;whiteSpace=wrap;rounded=0;" vertex="1" parent="1">
          <mxGeometry x="630" y="475" width="60" height="30" as="geometry" />
        </mxCell>
        <mxCell id="jS9vBvpKBLp8E3dJ-pfQ-40" style="edgeStyle=orthogonalEdgeStyle;rounded=0;orthogonalLoop=1;jettySize=auto;html=1;entryX=0.5;entryY=1;entryDx=0;entryDy=0;dashed=1;fillColor=#d5e8d4;strokeColor=#82b366;" edge="1" parent="1" source="jS9vBvpKBLp8E3dJ-pfQ-39" target="jS9vBvpKBLp8E3dJ-pfQ-29">
          <mxGeometry relative="1" as="geometry" />
        </mxCell>
        <mxCell id="jS9vBvpKBLp8E3dJ-pfQ-39" value="Essential for security, without this padding function, it will be insecure due to existential forgery attack by swapping two blocks. Note that P is a padding function with 2 inputs: the key and the block number" style="text;html=1;align=center;verticalAlign=middle;whiteSpace=wrap;rounded=0;fillColor=#d5e8d4;strokeColor=#82b366;" vertex="1" parent="1">
          <mxGeometry x="-190" y="530" width="230" height="120" as="geometry" />
        </mxCell>
      </root>
    </mxGraphModel>
  </diagram>
</mxfile>
